<svg xmlns="http://www.w3.org/2000/svg" version="1.1" xmlns:xlink="http://www.w3.org/1999/xlink" width="1000" height="1000"><g clip-path="url(#SvgjsClipPath1441)"><rect width="1000" height="1000" fill="#fffafa"></rect><g transform="matrix(15.625,0,0,15.625,0,0)"><svg xmlns="http://www.w3.org/2000/svg" version="1.1" xmlns:xlink="http://www.w3.org/1999/xlink" width="64" height="64"><svg viewBox="0 0 64 64" xmlns="http://www.w3.org/2000/svg">
  <!-- Ana kamyon gövdesi - solid turuncu -->
  <rect x="8" y="32" width="32" height="16" rx="2" fill="#f59e0b"></rect>
  
  <!-- Kamyon kabini - solid turuncu -->
  <rect x="38" y="28" width="12" height="20" rx="2" fill="#f59e0b"></rect>
  
  <!-- Cargo konteyneri - solid yeşil -->
  <rect x="10" y="34" width="28" height="12" rx="1" fill="#10b981" stroke="#ffffff" stroke-width="1"></rect>
  
  <!-- Cargo kutusu detayları - basit beyaz -->
  <rect x="12" y="36" width="6" height="3" rx="0.5" fill="#ffffff"></rect>
  <rect x="20" y="36" width="6" height="3" rx="0.5" fill="#ffffff"></rect>
  <rect x="28" y="36" width="6" height="3" rx="0.5" fill="#ffffff"></rect>
  
  <rect x="12" y="41" width="6" height="3" rx="0.5" fill="#ffffff"></rect>
  <rect x="20" y="41" width="6" height="3" rx="0.5" fill="#ffffff"></rect>
  <rect x="28" y="41" width="6" height="3" rx="0.5" fill="#ffffff"></rect>
  
  <!-- Tekerlekler - solid gri -->
  <circle cx="16" cy="50" r="4" fill="#374151"></circle>
  <circle cx="16" cy="50" r="2.5" fill="#ffffff"></circle>
  <circle cx="44" cy="50" r="4" fill="#374151"></circle>
  <circle cx="44" cy="50" r="2.5" fill="#ffffff"></circle>
  
  <!-- Hesaplama simgesi - solid mavi -->
  <circle cx="50" cy="14" r="8" fill="#3b82f6" stroke="#ffffff" stroke-width="2"></circle>
  
  <!-- Hesap makinesi tuşları - basit -->
  <circle cx="47" cy="11" r="1.5" fill="#ffffff"></circle>
  <circle cx="53" cy="11" r="1.5" fill="#ffffff"></circle>
  <circle cx="47" cy="17" r="1.5" fill="#ffffff"></circle>
  <circle cx="53" cy="17" r="1.5" fill="#ffffff"></circle>
  
  <!-- Plus işareti - kalın -->
  <line x1="48" y1="14" x2="52" y2="14" stroke="#ffffff" stroke-width="2" stroke-linecap="round"></line>
  <line x1="50" y1="12" x2="50" y2="16" stroke="#ffffff" stroke-width="2" stroke-linecap="round"></line>
</svg></svg></g></g><defs><clipPath id="SvgjsClipPath1441"><rect width="1000" height="1000" x="0" y="0" rx="500" ry="500"></rect></clipPath></defs></svg>